<svg xmlns="http://www.w3.org/2000/svg" width="624.6" height="377.1" overflow="visible"><style>.first{opacity:0;animation: showMe 1s forwards;animation-delay:0.25s;}.second{opacity:0;animation:showMe 1s forwards;animation-delay:0.5s;}.third{opacity:0;animation:showMe 1s forwards;animation-delay:1s;}.fourth{opacity:0;animation:showMe 1s forwards;animation-delay:1s;}@keyframes showMe{to{opacity: 1;}}.st1{fill:#3499cc}.st3{fill:#3d4644}.st4{font-family:'Gilroy';font-weight:700;}.st5{font-size:13.8093px}.st6{fill:none;stroke:#707070;stroke-width:2}</style>
  <g id="Group_13249_1_" transform="translate(-690.511 -5599.856)">
      <path id="Path_18236_1_" class="fourth" d="M1012.3 5924.8h106.8l134.3-266.5h-106.8l-134.3 266.5z" fill="#2e8ab9"/>
      <path id="Path_18237_1_" class="st1 third" d="M994.2 5924.8h98.9l-62.6-178.6h-98.9l62.6 178.6z"/>
      <path id="Artwork_5_1_" class="st1 first" d="M931.6 5924.8H824.8l-134.3-266.5h106.8l134.3 266.5z"/>
      <path id="Path_18238_1_" class="second" d="M949.7 5924.8h-98.9l62.6-178.6h98.9l-62.6 178.6z" fill="#1da3d9"/><text transform="translate(759.111 5611.594)" class="st3 st4 st5">Gain</text><text transform="translate(789.975 5611.594)" class="st3 st4 st5"></text><text transform="translate(793.427 5611.594)" class="st3 st4 st5 first">instant</text><text transform="translate(837.88 5611.594)" class="st3 st4 st5"></text><text transform="translate(759.111 5627.705)" class="st3 st4 st5 first">capacity to sell more</text><text transform="translate(974.197 5676.388)" class="st3 st4 st5 third">Mitigate supply chain</text><text transform="translate(974.197 5692.498)" class="st3 st4 st5 third">costs &amp; risks</text><text transform="translate(928.46 5952.747)" class="st3 st4 st5">Gain</text><text transform="translate(959.324 5952.747)" class="st3 st4 st5"></text><text transform="translate(962.776 5952.747)" class="st3 st4 st5 second">Transparency</text><text transform="translate(1049.637 5952.747)" class="st3 st4 st5"></text><text transform="translate(928.46 5968.858)" class="st3 st4 st5 second">into your supply chain</text><text transform="translate(1177.981 5901.074)" class="st3 st4 st5 fourth">Dramatically improve</text><text transform="translate(1177.981 5917.186)" class="st3 st4 st5 fourth">supply chain agility</text>
      <path id="Path_18239_1_" class="st6 third" d="M949.5 5746.3l25.7-47.5h76.7"/>
      <path id="Path_18240_1_" class="st6 first" d="M746.5 5658.9l10.8-22.2h133.2"/>
      <path id="Path_18241_1_" class="st6 second" d="M895.3 5924.3l28.4 51.7h146"/>
      <path id="Path_18242_1_" class="st6 fourth" d="M1144.8 5872.6l28.4 51.7h130.7"/>
      </g></svg>



